<?xml version="1.0" encoding="iso-8859-1"?>
<!-- Generator: Adobe Illustrator 19.0.0, SVG Export Plug-In . SVG Version: 6.00 Build 0)  -->
<svg version="1.1" id="Layer_1" xmlns="http://www.w3.org/2000/svg" xmlns:xlink="http://www.w3.org/1999/xlink" x="0px" y="0px"
	 viewBox="0 0 512 512" style="enable-background:new 0 0 512 512;" xml:space="preserve">
<g>
	<g>
		<path d="M303.02,70.534c0-11.975,2.592-17.161,6.183-24.34c4.229-8.458,9.491-18.984,9.491-38.357h-31.347
			c0,11.975-2.592,17.16-6.182,24.339c-4.23,8.458-9.492,18.984-9.492,38.358c0,19.373,5.262,29.899,9.491,38.357
			c3.59,7.178,6.183,12.365,6.183,24.34c0,11.971-2.592,17.157-6.182,24.334c-4.229,8.457-9.492,18.982-9.492,38.354h31.347
			c0-11.971,2.592-17.157,6.182-24.334c4.229-8.457,9.492-18.982,9.492-38.354c0-19.375-5.262-29.9-9.492-38.358
			C305.613,87.694,303.02,82.508,303.02,70.534z"/>
	</g>
</g>
<g>
	<g>
		<path d="M224.653,70.534c0-11.975,2.592-17.161,6.183-24.34c4.229-8.458,9.491-18.984,9.491-38.357H208.98
			c0,11.975-2.592,17.16-6.182,24.339c-4.23,8.458-9.492,18.984-9.492,38.358c0,19.373,5.262,29.899,9.491,38.357
			c3.59,7.178,6.183,12.365,6.183,24.34c0,11.971-2.592,17.157-6.182,24.334c-4.229,8.457-9.492,18.982-9.492,38.354h31.347
			c0-11.971,2.592-17.157,6.182-24.334c4.229-8.457,9.492-18.982,9.492-38.354c0-19.375-5.262-29.9-9.492-38.358
			C227.245,87.694,224.653,82.508,224.653,70.534z"/>
	</g>
</g>
<g>
	<g>
		<path d="M434.951,378.776c10.706-14.072,19.71-29.347,26.882-45.702c12.488-28.476,18.82-58.803,18.82-90.135v-15.673H31.347
			v15.673c0,31.332,6.332,61.659,18.82,90.135c7.172,16.355,16.176,31.63,26.882,45.702H0v19.289l35.764,106.099h440.474
			L512,398.064v-19.289H434.951z M63.31,258.612H448.69c-3.597,45.473-22.838,87.488-55.173,120.163H118.483
			C86.149,346.101,66.907,304.085,63.31,258.612z M453.723,472.816H58.277l-21.133-62.694h437.71L453.723,472.816z"/>
	</g>
</g>
<g>
</g>
<g>
</g>
<g>
</g>
<g>
</g>
<g>
</g>
<g>
</g>
<g>
</g>
<g>
</g>
<g>
</g>
<g>
</g>
<g>
</g>
<g>
</g>
<g>
</g>
<g>
</g>
<g>
</g>
</svg>
